<?xml version="1.0" standalone="no"?>
<!DOCTYPE svg PUBLIC "-//W3C//DTD SVG 20010904//EN"
 "http://www.w3.org/TR/2001/REC-SVG-20010904/DTD/svg10.dtd">
<svg version="1.0" xmlns="http://www.w3.org/2000/svg"
 width="997.000000pt" height="225.000000pt" viewBox="0 0 997.000000 225.000000"
 preserveAspectRatio="xMidYMid meet">

<g transform="translate(0.000000,225.000000) scale(0.100000,-0.100000)"
fill="#000000" stroke="none">
<path d="M0 1125 l0 -1125 4985 0 4985 0 0 1125 0 1125 -4985 0 -4985 0 0
-1125z m1351 1069 c8 -9 81 -78 164 -152 82 -74 157 -142 165 -151 8 -9 49
-45 90 -81 108 -93 355 -315 420 -376 69 -65 160 -145 238 -209 34 -27 64 -58
67 -67 4 -12 -9 -30 -41 -60 -26 -24 -52 -48 -58 -53 -6 -6 -60 -53 -121 -104
-60 -52 -140 -121 -176 -155 -36 -33 -97 -88 -134 -121 -72 -62 -140 -123
-210 -187 -40 -36 -47 -43 -126 -108 -23 -19 -85 -75 -138 -123 -53 -49 -112
-101 -132 -117 l-35 -29 -60 51 c-32 28 -75 64 -94 82 -19 17 -105 92 -190
166 -85 74 -157 137 -160 140 -3 3 -57 50 -120 105 -473 414 -552 483 -564
504 -3 4 56 62 132 127 75 65 162 142 192 169 31 28 85 75 120 106 133 116
549 482 645 568 55 50 103 91 106 91 4 0 13 -7 20 -16z m4863 -732 c103 -56
151 -168 144 -339 -3 -83 -8 -108 -31 -156 -51 -103 -141 -157 -263 -157 -125
0 -217 59 -267 169 -29 63 -36 226 -13 303 18 62 60 124 108 162 81 61 228 69
322 18z m-2828 1 c47 -25 70 -55 79 -107 10 -53 -2 -102 -35 -140 l-29 -33 30
-29 c44 -41 59 -76 59 -134 0 -65 -18 -108 -63 -147 -51 -45 -91 -53 -269 -53
l-158 0 0 336 0 336 173 -4 c154 -3 176 -5 213 -25z m582 -83 c19 -58 65 -202
103 -321 38 -119 69 -221 69 -227 0 -8 -22 -12 -64 -12 l-64 0 -27 80 -27 80
-113 0 -114 0 -23 -77 -24 -78 -62 -3 c-40 -2 -62 1 -62 8 0 6 41 143 90 304
50 161 90 297 90 302 0 5 7 20 16 32 14 21 22 23 97 20 l82 -3 33 -105z m466
65 c12 -22 64 -129 115 -238 52 -108 99 -197 103 -197 5 0 8 102 7 228 -1 125
-1 233 0 240 1 8 19 12 56 12 l55 0 2 -237 c4 -335 4 -374 -1 -406 l-3 -28
-81 3 -80 3 -113 240 c-63 131 -119 244 -124 249 -7 7 -10 -75 -10 -242 l0
-252 -60 0 -60 0 0 335 0 336 87 -3 86 -3 21 -40z m626 -105 c0 -82 4 -150 8
-150 9 0 80 86 174 211 32 42 65 80 74 83 8 3 45 6 80 6 79 0 81 7 -50 -145
-53 -60 -96 -118 -96 -127 0 -10 50 -98 110 -197 61 -99 110 -184 110 -190 0
-7 -27 -11 -69 -11 -82 0 -74 -8 -170 170 -35 63 -68 121 -75 128 -10 10 -21
2 -54 -39 l-42 -52 0 -103 0 -104 -59 0 c-48 0 -59 3 -63 18 -3 14 -2 569 1
635 1 14 11 17 61 17 l60 0 0 -150z m1860 95 l0 -55 -150 0 -151 0 3 -87 3
-88 138 -3 137 -3 0 -49 0 -50 -140 0 -140 0 0 -140 0 -141 -62 3 -63 3 -3
320 c-1 176 0 325 3 332 3 10 55 13 215 13 l210 0 0 -55z m500 -225 l0 -280
134 0 c74 0 141 -3 150 -6 12 -4 16 -20 16 -55 l0 -49 -215 0 -215 0 0 335 0
335 65 0 65 0 0 -280z m530 -55 l0 -335 -65 0 -65 0 0 335 0 335 65 0 65 0 0
-335z m327 327 c7 -4 30 -44 51 -87 156 -323 187 -385 195 -385 5 0 6 90 2
218 -4 120 -4 228 -1 240 6 19 15 22 62 22 l54 0 0 -335 0 -335 -78 0 c-72 0
-80 2 -90 23 -6 12 -62 126 -124 252 l-113 230 -3 -252 -2 -253 -54 0 c-40 0
-55 4 -60 16 -3 9 -6 159 -6 335 l0 319 78 0 c42 0 83 -4 89 -8z m963 -47 l0
-54 -152 -3 -153 -3 0 -75 0 -75 145 -5 145 -5 3 -38 c5 -64 -3 -67 -159 -67
l-139 0 0 -90 0 -90 99 0 c54 0 126 -3 160 -6 l62 -7 -3 -46 -3 -46 -214 -3
c-165 -2 -216 1 -223 10 -9 15 -11 618 -2 642 5 14 34 16 220 16 l214 0 0 -55z
m487 -15 c17 -49 115 -357 188 -587 3 -10 -14 -13 -64 -13 l-69 0 -27 80 -27
81 -111 -3 -112 -3 -24 -77 -25 -78 -63 0 c-35 0 -63 3 -63 8 0 4 13 48 29 97
16 50 59 191 96 315 37 124 72 231 78 238 7 9 34 12 91 10 l81 -3 22 -65z"/>
<path d="M1293 1941 c-10 -10 -40 -38 -68 -61 -27 -23 -90 -80 -140 -125 -49
-45 -126 -113 -171 -151 -77 -66 -350 -304 -464 -405 l-55 -48 47 -43 c91 -83
124 -112 328 -291 113 -99 219 -193 235 -208 209 -188 318 -280 328 -276 7 2
84 69 173 148 795 710 736 656 732 674 -2 8 -79 80 -173 161 -93 81 -226 197
-295 258 -69 61 -138 123 -155 137 -16 15 -86 76 -154 138 -69 61 -130 111
-137 111 -7 0 -21 -8 -31 -19z m133 -346 c43 -38 108 -97 144 -130 36 -33 128
-114 203 -179 75 -66 137 -127 137 -136 0 -8 -10 -24 -22 -34 -13 -11 -61 -54
-108 -96 -47 -42 -123 -110 -170 -151 -78 -67 -154 -137 -217 -197 -42 -39
-71 -54 -87 -45 -14 8 -135 113 -311 273 -34 30 -110 98 -169 150 l-107 95 44
40 c157 144 198 176 215 170 9 -3 41 -28 71 -55 l53 -48 -23 -19 c-12 -10 -38
-32 -58 -50 l-36 -32 25 -23 c166 -151 301 -268 310 -268 13 0 46 24 100 73
19 18 66 59 105 92 38 33 82 71 97 84 36 31 35 41 -4 76 -18 16 -90 80 -160
142 -70 62 -131 113 -136 113 -5 0 -15 -7 -22 -16 -33 -39 -46 -36 -115 22
l-66 56 67 61 c101 93 135 118 149 109 7 -4 48 -38 91 -77z"/>
<path d="M5982 1370 c-64 -39 -96 -170 -73 -291 23 -114 89 -177 174 -166 54
7 87 33 117 93 22 43 25 62 25 149 -1 164 -48 235 -160 235 -33 0 -62 -7 -83
-20z"/>
<path d="M3132 1309 l3 -84 50 -3 c105 -7 155 20 155 82 0 19 -9 44 -19 57
-17 21 -29 24 -106 28 l-86 3 3 -83z"/>
<path d="M3130 1020 c0 -114 -11 -103 105 -100 33 1 69 7 81 15 51 33 55 127
7 165 -21 16 -40 20 -109 20 l-84 0 0 -100z"/>
<path d="M3811 1270 c-18 -58 -37 -118 -42 -134 -5 -16 -9 -33 -9 -37 0 -5 38
-9 85 -9 l85 0 -6 28 c-4 15 -24 79 -44 142 l-37 115 -32 -105z"/>
<path d="M9606 1354 c-3 -11 -21 -72 -41 -137 -19 -65 -35 -120 -35 -123 0 -7
170 -4 170 4 0 14 -73 257 -81 266 -4 4 -10 0 -13 -10z"/>
</g>
</svg>
